<svg width="25" height="24" viewBox="0 0 25 24" fill="none" xmlns="http://www.w3.org/2000/svg">
<path d="M10.6945 6.6416H13.9205M10.6945 10.3285H16.6857M10.6945 14.0154H16.6857" stroke="#ABAFB1" stroke-width="1.2" stroke-linecap="round" stroke-linejoin="round"/>
<path fill-rule="evenodd" clip-rule="evenodd" d="M21.6734 14.8099C21.7547 14.0113 21.7547 13.0114 21.7546 11.7493L21.7547 9.14693C21.7549 8.18101 21.755 7.55808 21.5869 6.96853C21.4948 6.64532 21.3658 6.33379 21.2024 6.0401C20.9043 5.50439 20.4638 5.06401 19.7806 4.38114L19.6369 4.23739C18.954 3.55425 18.5136 3.11368 17.9779 2.81564C17.6842 2.65224 17.3727 2.5232 17.0495 2.43107C16.4599 2.26302 15.837 2.26315 14.8711 2.26335L13.6896 2.26336V2.26536C12.8275 2.27053 12.1018 2.28905 11.4895 2.3554C10.6182 2.44979 9.89477 2.64756 9.27271 3.09952C8.90102 3.36956 8.57416 3.69642 8.30412 4.06811C8.0163 4.46425 7.83157 4.90151 7.71097 5.39186L6.95528 5.59435C4.61967 6.22018 3.23361 8.6209 3.85944 10.9565L5.88719 18.5242C6.51301 20.8598 8.91373 22.2458 11.2493 21.62L16.5912 20.1887C17.6115 19.9153 18.4505 19.3033 19.0198 18.5059C19.2998 18.4083 19.5617 18.2817 19.8089 18.1165C20.2869 17.7971 20.6974 17.3866 21.0168 16.9086C21.416 16.3111 21.5902 15.6281 21.6734 14.8099ZM14.8821 3.64597L14.7694 3.64594C13.3853 3.64596 12.4001 3.64741 11.6384 3.72994C10.8848 3.81158 10.4325 3.96587 10.0854 4.21805C9.83106 4.40282 9.60742 4.62646 9.42265 4.88077C9.17047 5.22786 9.01618 5.68021 8.93453 6.43378C8.85149 7.20028 8.85054 8.19317 8.85054 9.59105V11.711C8.85054 13.0199 8.85138 13.9496 8.92466 14.67C8.99677 15.3788 9.13326 15.808 9.35539 16.1404C9.57394 16.4675 9.85478 16.7484 10.1819 16.9669C10.5143 17.1891 10.9435 17.3255 11.6523 17.3977C12.3727 17.4709 13.3024 17.4718 14.6113 17.4718C15.9202 17.4718 16.8499 17.4709 17.5703 17.3977C18.2791 17.3255 18.7083 17.1891 19.0407 16.9669C19.3678 16.7484 19.6487 16.4675 19.8672 16.1404C20.0893 15.808 20.2258 15.3788 20.2979 14.67C20.3712 13.9496 20.3721 13.0199 20.3721 11.711V9.4067C20.3721 8.95266 20.3706 8.68166 20.3445 8.48744C20.3325 8.39844 20.3184 8.35386 20.3102 8.33379C20.3083 8.32914 20.3068 8.32608 20.3058 8.3243L20.3046 8.32206L20.3023 8.32079C20.3005 8.31986 20.2975 8.31837 20.2928 8.31645C20.2728 8.30819 20.2282 8.2941 20.1392 8.28213C19.945 8.25602 19.674 8.25455 19.2199 8.25455L18.2569 8.25455C17.858 8.2546 17.4922 8.25464 17.1947 8.21464C16.867 8.17059 16.5207 8.06694 16.2359 7.78211C15.9511 7.49728 15.8474 7.15096 15.8034 6.82331C15.7634 6.52577 15.7634 6.16 15.7635 5.76106L15.7635 4.61375C15.7635 4.25273 15.7625 4.03749 15.7455 3.88028C15.7355 3.7878 15.7227 3.74991 15.718 3.73892C15.7045 3.72086 15.6885 3.70485 15.6705 3.69142C15.6595 3.68669 15.6216 3.67394 15.5291 3.66392C15.3849 3.6483 15.1918 3.64621 14.8821 3.64597ZM16.2599 18.846C15.7767 18.8544 15.242 18.8544 14.6496 18.8544H14.573C13.3109 18.8544 12.311 18.8544 11.5124 18.7731C10.6943 18.6899 10.0112 18.5157 9.41375 18.1165C8.9357 17.7971 8.52524 17.3866 8.20581 16.9086C7.80659 16.3111 7.63241 15.6281 7.54918 14.8099C7.46794 14.0114 7.46795 13.0114 7.46796 11.7493V9.55004C7.46795 8.49819 7.46794 7.61683 7.51171 6.87661L7.31312 6.92982C5.71507 7.35802 4.76671 9.00062 5.19491 10.5987L7.22266 18.1663C7.65086 19.7644 9.29345 20.7127 10.8915 20.2845L16.2334 18.8532C16.2422 18.8508 16.2511 18.8484 16.2599 18.846ZM19.9942 6.71229C20.0263 6.77006 20.0565 6.82885 20.0848 6.88854C19.8384 6.8719 19.559 6.87193 19.2612 6.87197L18.2982 6.87197C17.8441 6.87197 17.5732 6.8705 17.3789 6.84439C17.2899 6.83242 17.2453 6.81833 17.2253 6.81007C17.2206 6.80815 17.2176 6.80666 17.2158 6.80573L17.2135 6.80446L17.2123 6.80222C17.2113 6.80044 17.2099 6.79738 17.2079 6.79273C17.1997 6.77266 17.1856 6.72808 17.1736 6.63908C17.1475 6.44486 17.146 6.17386 17.146 5.71982L17.146 4.58122C17.1461 4.3491 17.1461 4.13093 17.1359 3.93631C17.1934 3.96365 17.25 3.99283 17.3057 4.02382C17.6519 4.21641 17.9516 4.5074 18.7311 5.28691C19.5106 6.06642 19.8016 6.36612 19.9942 6.71229Z" fill="#ABAFB1"/>
</svg>
