<svg width="21" height="21" viewBox="0 0 21 21" fill="none" xmlns="http://www.w3.org/2000/svg">
<g id="Iconly/Light/Chat">
<g id="Chat">
<path id="Stroke 4" fill-rule="evenodd" clip-rule="evenodd" d="M16.1728 16.7215C13.626 19.2685 9.8548 19.8188 6.76867 18.3916C6.31308 18.2082 5.93956 18.0599 5.58447 18.0599C4.5954 18.0658 3.36429 19.0248 2.72445 18.3857C2.08462 17.7458 3.04437 16.5137 3.04437 15.5187C3.04437 15.1636 2.902 14.7967 2.71859 14.3402C1.29068 11.2546 1.84175 7.48215 4.38854 4.93592C7.63965 1.68361 12.9217 1.68361 16.1728 4.93508C19.4298 8.19242 19.4239 13.47 16.1728 16.7215Z" stroke="#2D3748" stroke-width="1.5" stroke-linecap="round" stroke-linejoin="round"/>
<path id="Stroke 11" d="M13.5628 11.1741H13.5703" stroke="#2D3748" stroke-width="2" stroke-linecap="round" stroke-linejoin="round"/>
<path id="Stroke 13" d="M10.222 11.1741H10.2295" stroke="#2D3748" stroke-width="2" stroke-linecap="round" stroke-linejoin="round"/>
<path id="Stroke 15" d="M6.88118 11.1741H6.88868" stroke="#2D3748" stroke-width="2" stroke-linecap="round" stroke-linejoin="round"/>
</g>
</g>
</svg>
