<svg width="25" height="24" viewBox="0 0 25 24" fill="none" xmlns="http://www.w3.org/2000/svg">
<path d="M18.2 15.8369C19.6559 16.5683 20.9041 17.742 21.8152 19.2096C21.9956 19.5003 22.0859 19.6456 22.117 19.8468C22.1804 20.2558 21.9008 20.7585 21.5199 20.9204C21.3325 21 21.1216 21 20.7 21M16.2 11.5322C17.6817 10.7959 18.7 9.26686 18.7 7.5C18.7 5.73314 17.6817 4.20411 16.2 3.46776M14.2 7.5C14.2 9.98528 12.1853 12 9.69997 12C7.21469 12 5.19997 9.98528 5.19997 7.5C5.19997 5.01472 7.21469 3 9.69997 3C12.1853 3 14.2 5.01472 14.2 7.5ZM2.7592 18.9383C4.35351 16.5446 6.86934 15 9.69997 15C12.5306 15 15.0464 16.5446 16.6407 18.9383C16.99 19.4628 17.1646 19.725 17.1445 20.0599C17.1289 20.3207 16.9579 20.64 16.7495 20.7976C16.4819 21 16.1138 21 15.3776 21H4.02233C3.28614 21 2.91805 21 2.65041 20.7976C2.44202 20.64 2.27106 20.3207 2.2554 20.0599C2.2353 19.725 2.40993 19.4628 2.7592 18.9383Z" stroke="#ABAFB1" stroke-width="1.5" stroke-linecap="round" stroke-linejoin="round"/>
</svg>
