<svg width="25" height="24" viewBox="0 0 25 24" fill="none" xmlns="http://www.w3.org/2000/svg">
<path d="M7.47131 2.75C8.21427 2.75 8.73237 2.75039 9.13733 2.7793C9.53516 2.80772 9.76694 2.86069 9.94299 2.9375C10.4632 3.16451 10.8781 3.58039 11.1051 4.10059C11.1819 4.27661 11.2349 4.50764 11.2633 4.90527C11.2922 5.31025 11.2926 5.82822 11.2926 6.57129C11.2926 7.31426 11.2922 7.83235 11.2633 8.2373C11.2349 8.63514 11.1819 8.86691 11.1051 9.04297C10.8781 9.56299 10.463 9.9781 9.94299 10.2051C9.76694 10.2819 9.53516 10.3349 9.13733 10.3633C8.73237 10.3922 8.21428 10.3926 7.47131 10.3926C6.72825 10.3926 6.21027 10.3922 5.8053 10.3633C5.40767 10.3349 5.17663 10.2818 5.00061 10.2051C4.48041 9.97812 4.06454 9.56314 3.83752 9.04297C3.76071 8.86691 3.70774 8.63514 3.67932 8.2373C3.65041 7.83235 3.65002 7.31425 3.65002 6.57129C3.65002 5.82823 3.6504 5.31025 3.67932 4.90527C3.70772 4.50772 3.7608 4.2766 3.83752 4.10059C4.06452 3.58032 4.48034 3.16449 5.00061 2.9375C5.17662 2.86077 5.40775 2.8077 5.8053 2.7793C6.21027 2.75037 6.72826 2.75 7.47131 2.75Z" stroke="#ABAFB1" stroke-width="1.5"/>
<path d="M7.47131 13.6071C8.21427 13.6071 8.73237 13.6075 9.13733 13.6364C9.53516 13.6649 9.76694 13.7178 9.94299 13.7946C10.4632 14.0217 10.8781 14.4375 11.1051 14.9577C11.1819 15.1338 11.2349 15.3648 11.2633 15.7624C11.2922 16.1674 11.2926 16.6854 11.2926 17.4284C11.2926 18.1714 11.2922 18.6895 11.2633 19.0945C11.2349 19.4923 11.1819 19.7241 11.1051 19.9001C10.8781 20.4201 10.463 20.8353 9.94299 21.0622C9.76694 21.139 9.53516 21.192 9.13733 21.2204C8.73237 21.2493 8.21428 21.2497 7.47131 21.2497C6.72825 21.2497 6.21027 21.2494 5.8053 21.2204C5.40767 21.192 5.17663 21.139 5.00061 21.0622C4.48041 20.8353 4.06454 20.4203 3.83752 19.9001C3.76071 19.7241 3.70774 19.4923 3.67932 19.0945C3.65041 18.6895 3.65002 18.1714 3.65002 17.4284C3.65002 16.6854 3.6504 16.1674 3.67932 15.7624C3.70772 15.3649 3.7608 15.1337 3.83752 14.9577C4.06452 14.4375 4.48034 14.0216 5.00061 13.7946C5.17662 13.7179 5.40775 13.6648 5.8053 13.6364C6.21027 13.6075 6.72826 13.6071 7.47131 13.6071Z" stroke="#ABAFB1" stroke-width="1.5"/>
<path d="M18.3285 2.75C19.0715 2.75 19.5896 2.75039 19.9945 2.7793C20.3923 2.80772 20.6241 2.86069 20.8002 2.9375C21.3203 3.16451 21.7353 3.58039 21.9623 4.10059C22.039 4.27661 22.0921 4.50764 22.1205 4.90527C22.1494 5.31025 22.1498 5.82822 22.1498 6.57129C22.1498 7.31426 22.1494 7.83235 22.1205 8.2373C22.0921 8.63514 22.0391 8.86691 21.9623 9.04297C21.7353 9.56299 21.3202 9.9781 20.8002 10.2051C20.6241 10.2819 20.3923 10.3349 19.9945 10.3633C19.5895 10.3922 19.0715 10.3926 18.3285 10.3926C17.5854 10.3926 17.0675 10.3922 16.6625 10.3633C16.2648 10.3349 16.0338 10.2818 15.8578 10.2051C15.3376 9.97812 14.9217 9.56314 14.6947 9.04297C14.6179 8.86691 14.5649 8.63514 14.5365 8.2373C14.5076 7.83235 14.5072 7.31425 14.5072 6.57129C14.5072 5.82823 14.5076 5.31025 14.5365 4.90527C14.5649 4.50772 14.618 4.2766 14.6947 4.10059C14.9217 3.58032 15.3375 3.16449 15.8578 2.9375C16.0338 2.86077 16.2649 2.8077 16.6625 2.7793C17.0674 2.75037 17.5854 2.75 18.3285 2.75Z" stroke="#ABAFB1" stroke-width="1.5"/>
<path d="M18.3285 13.6071C19.0715 13.6071 19.5896 13.6075 19.9945 13.6364C20.3923 13.6649 20.6241 13.7178 20.8002 13.7946C21.3203 14.0217 21.7353 14.4375 21.9623 14.9577C22.039 15.1338 22.0921 15.3648 22.1205 15.7624C22.1494 16.1674 22.1498 16.6854 22.1498 17.4284C22.1498 18.1714 22.1494 18.6895 22.1205 19.0945C22.0921 19.4923 22.0391 19.7241 21.9623 19.9001C21.7353 20.4201 21.3202 20.8353 20.8002 21.0622C20.6241 21.139 20.3923 21.192 19.9945 21.2204C19.5895 21.2493 19.0715 21.2497 18.3285 21.2497C17.5854 21.2497 17.0675 21.2494 16.6625 21.2204C16.2648 21.192 16.0338 21.139 15.8578 21.0622C15.3376 20.8353 14.9217 20.4203 14.6947 19.9001C14.6179 19.7241 14.5649 19.4923 14.5365 19.0945C14.5076 18.6895 14.5072 18.1714 14.5072 17.4284C14.5072 16.6854 14.5076 16.1674 14.5365 15.7624C14.5649 15.3649 14.618 15.1337 14.6947 14.9577C14.9217 14.4375 15.3375 14.0216 15.8578 13.7946C16.0338 13.7179 16.2649 13.6648 16.6625 13.6364C17.0674 13.6075 17.5854 13.6071 18.3285 13.6071Z" stroke="#ABAFB1" stroke-width="1.5"/>
</svg>
