<svg width="145" height="50" viewBox="0 0 145 50" fill="none" xmlns="http://www.w3.org/2000/svg">
<g clip-path="url(#clip0_2115_4307)">
<path fill-rule="evenodd" clip-rule="evenodd" d="M33.3598 23.224C33.0594 21.5197 32.2603 19.9427 31.0637 18.6925L37.3848 12.6422C39.778 15.1426 41.3761 18.2965 41.9769 21.7052C42.5777 25.1138 42.1542 28.624 40.7601 31.792C39.3659 34.9599 37.0636 37.6433 34.1443 39.5028C31.2251 41.3623 27.82 42.3144 24.3596 42.2386C20.8993 42.1629 17.5391 41.0627 14.704 39.0773C11.8689 37.0918 9.68625 34.3102 8.43199 31.0843C7.1778 27.8584 6.90829 24.333 7.65767 20.9539C8.40705 17.5749 10.1416 14.4939 12.642 12.1006L18.6923 18.4217C17.4421 19.6183 16.5748 21.1588 16.2001 22.8484C15.8254 24.5379 15.9602 26.3006 16.5873 27.9136C17.2144 29.5265 18.3058 30.9173 19.7233 31.91C21.1408 32.9028 22.8209 33.4528 24.5511 33.4908C26.2813 33.5286 27.9838 33.0525 29.4434 32.1228C30.9031 31.1931 32.0543 29.8514 32.7513 28.2674C33.4484 26.6834 33.6602 24.9283 33.3598 23.224Z" fill="url(#paint0_linear_2115_4307)"/>
<path fill-rule="evenodd" clip-rule="evenodd" d="M25.7224 25.7665C25.8939 25.1548 29.5259 7.7389 28.455 8.15529C27.384 8.57168 26.2415 8.77305 25.0927 8.74791C23.9439 8.72277 22.8113 8.47159 21.7596 8.00874C20.7079 7.54588 25.877 25.928 25.7224 25.7665L12.642 12.1006C14.231 13.7608 16.1316 15.0918 18.235 16.0175C20.3385 16.9432 22.6037 17.4455 24.9012 17.4958C27.1988 17.5461 29.4838 17.1434 31.6257 16.3106C33.7677 15.4778 35.7246 14.2313 37.3848 12.6422L25.7224 25.7665Z" fill="url(#paint1_linear_2115_4307)"/>
</g>
<path d="M76.1908 12.4629L67.8608 37.2429H57.8158L49.4858 12.4629H57.7458L62.8558 29.5079L67.9308 12.4629H76.1908Z" fill="url(#paint2_linear_2115_4307)"/>
<path d="M89.1258 33.4979H80.8658L79.6408 37.2429H71.4858L80.5508 12.4629H89.5108L98.5408 37.2429H90.3508L89.1258 33.4979ZM87.2358 27.6529L84.9958 20.7579L82.7558 27.6529H87.2358Z" fill="url(#paint3_linear_2115_4307)"/>
<path d="M98.5358 24.8179C98.5358 22.3679 99.0258 20.1863 100.006 18.2729C101.009 16.3596 102.433 14.8779 104.276 13.8279C106.119 12.7546 108.289 12.2179 110.786 12.2179C112.933 12.2179 114.846 12.6263 116.526 13.4429C118.229 14.2363 119.606 15.3679 120.656 16.8379C121.729 18.3079 122.441 20.0229 122.791 21.9829H114.601C114.228 21.1663 113.691 20.5363 112.991 20.0929C112.314 19.6263 111.533 19.3929 110.646 19.3929C109.339 19.3929 108.301 19.8829 107.531 20.8629C106.784 21.8429 106.411 23.1613 106.411 24.8179C106.411 26.4746 106.784 27.7929 107.531 28.7729C108.301 29.7529 109.339 30.2429 110.646 30.2429C111.533 30.2429 112.314 30.0213 112.991 29.5779C113.691 29.1113 114.228 28.4696 114.601 27.6529H122.791C122.441 29.6129 121.729 31.3279 120.656 32.7979C119.606 34.2679 118.229 35.4113 116.526 36.2279C114.846 37.0213 112.933 37.4179 110.786 37.4179C108.289 37.4179 106.119 36.8929 104.276 35.8429C102.433 34.7696 101.009 33.2763 100.006 31.3629C99.0258 29.4496 98.5358 27.2679 98.5358 24.8179Z" fill="url(#paint4_linear_2115_4307)"/>
<path d="M134.931 37.4879C131.968 37.4879 129.518 36.7996 127.581 35.4229C125.668 34.0229 124.629 31.9813 124.466 29.2979H132.726C132.843 30.7213 133.473 31.4329 134.616 31.4329C135.036 31.4329 135.386 31.3396 135.666 31.1529C135.969 30.9429 136.121 30.6279 136.121 30.2079C136.121 29.6246 135.806 29.1579 135.176 28.8079C134.546 28.4346 133.566 28.0146 132.236 27.5479C130.649 26.9879 129.331 26.4396 128.281 25.9029C127.254 25.3663 126.368 24.5846 125.621 23.5579C124.874 22.5313 124.513 21.2129 124.536 19.6029C124.536 17.9929 124.944 16.6279 125.761 15.5079C126.601 14.3646 127.733 13.5013 129.156 12.9179C130.603 12.3346 132.224 12.0429 134.021 12.0429C137.054 12.0429 139.458 12.7429 141.231 14.1429C143.028 15.5429 143.973 17.5146 144.066 20.0579H135.701C135.678 19.3579 135.503 18.8563 135.176 18.5529C134.849 18.2496 134.453 18.0979 133.986 18.0979C133.659 18.0979 133.391 18.2146 133.181 18.4479C132.971 18.6579 132.866 18.9613 132.866 19.3579C132.866 19.9179 133.169 20.3846 133.776 20.7579C134.406 21.1079 135.398 21.5396 136.751 22.0529C138.314 22.6363 139.598 23.1963 140.601 23.7329C141.628 24.2696 142.514 25.0163 143.261 25.9729C144.008 26.9296 144.381 28.1313 144.381 29.5779C144.381 31.0946 144.008 32.4596 143.261 33.6729C142.514 34.8629 141.429 35.7963 140.006 36.4729C138.583 37.1496 136.891 37.4879 134.931 37.4879Z" fill="url(#paint5_linear_2115_4307)"/>
<defs>
<linearGradient id="paint0_linear_2115_4307" x1="37.3848" y1="12.6422" x2="12.1004" y2="36.8434" gradientUnits="userSpaceOnUse">
<stop stop-color="#46B3E5"/>
<stop offset="1" stop-color="#27637F"/>
</linearGradient>
<linearGradient id="paint1_linear_2115_4307" x1="25.4762" y1="8.90041" x2="24.2629" y2="28.987" gradientUnits="userSpaceOnUse">
<stop stop-color="#46B3E5"/>
<stop offset="1" stop-color="#4FD1C5"/>
</linearGradient>
<linearGradient id="paint2_linear_2115_4307" x1="64.9858" y1="8.74292" x2="74.8215" y2="18.8837" gradientUnits="userSpaceOnUse">
<stop stop-color="#46B3E5"/>
<stop offset="1" stop-color="#27637F"/>
</linearGradient>
<linearGradient id="paint3_linear_2115_4307" x1="79.6677" y1="12.1788" x2="88.0512" y2="27.7734" gradientUnits="userSpaceOnUse">
<stop stop-color="#46B3E5"/>
<stop offset="1" stop-color="#27637F"/>
</linearGradient>
<linearGradient id="paint4_linear_2115_4307" x1="100.759" y1="13.4352" x2="113.84" y2="24.9022" gradientUnits="userSpaceOnUse">
<stop stop-color="#46B3E5"/>
<stop offset="1" stop-color="#27637F"/>
</linearGradient>
<linearGradient id="paint5_linear_2115_4307" x1="125.153" y1="13.4352" x2="137.869" y2="21.6719" gradientUnits="userSpaceOnUse">
<stop stop-color="#46B3E5"/>
<stop offset="1" stop-color="#27637F"/>
</linearGradient>
<clipPath id="clip0_2115_4307">
<rect width="35" height="35" fill="white" transform="translate(25.2842) rotate(46.2539)"/>
</clipPath>
</defs>
</svg>
