<svg width="25" height="24" viewBox="0 0 25 24" fill="none" xmlns="http://www.w3.org/2000/svg">
<path d="M12.4 15C14.0568 15 15.4 13.6569 15.4 12C15.4 10.3431 14.0568 9 12.4 9C10.7431 9 9.39996 10.3431 9.39996 12C9.39996 13.6569 10.7431 15 12.4 15Z" stroke="#ABAFB1" stroke-width="1.5" stroke-linecap="round" stroke-linejoin="round"/>
<path d="M19.1272 14.7273C19.0062 15.0015 18.9701 15.3056 19.0236 15.6005C19.0771 15.8954 19.2177 16.1676 19.4272 16.3818L19.4818 16.4364C19.6508 16.6052 19.7849 16.8057 19.8764 17.0265C19.9679 17.2472 20.015 17.4838 20.015 17.7227C20.015 17.9617 19.9679 18.1983 19.8764 18.419C19.7849 18.6397 19.6508 18.8402 19.4818 19.0091C19.3129 19.1781 19.1124 19.3122 18.8917 19.4037C18.671 19.4952 18.4344 19.5423 18.1954 19.5423C17.9565 19.5423 17.7199 19.4952 17.4992 19.4037C17.2784 19.3122 17.0779 19.1781 16.9091 19.0091L16.8545 18.9545C16.6403 18.745 16.3681 18.6044 16.0732 18.5509C15.7783 18.4974 15.4742 18.5335 15.2 18.6545C14.9311 18.7698 14.7018 18.9611 14.5402 19.205C14.3787 19.4489 14.292 19.7347 14.2909 20.0273V20.1818C14.2909 20.664 14.0993 21.1265 13.7583 21.4675C13.4174 21.8084 12.9549 22 12.4727 22C11.9905 22 11.528 21.8084 11.187 21.4675C10.8461 21.1265 10.6545 20.664 10.6545 20.1818V20.1C10.6475 19.7991 10.5501 19.5073 10.375 19.2625C10.1999 19.0176 9.95518 18.8312 9.67269 18.7273C9.39849 18.6063 9.09433 18.5702 8.79943 18.6236C8.50452 18.6771 8.2324 18.8177 8.01815 19.0273L7.9636 19.0818C7.79474 19.2509 7.59422 19.385 7.37349 19.4765C7.15277 19.568 6.91617 19.6151 6.67724 19.6151C6.4383 19.6151 6.2017 19.568 5.98098 19.4765C5.76026 19.385 5.55973 19.2509 5.39087 19.0818C5.22182 18.913 5.08772 18.7124 4.99622 18.4917C4.90472 18.271 4.85762 18.0344 4.85762 17.7955C4.85762 17.5565 4.90472 17.3199 4.99622 17.0992C5.08772 16.8785 5.22182 16.678 5.39087 16.5091L5.44542 16.4545C5.655 16.2403 5.79559 15.9682 5.84906 15.6733C5.90253 15.3784 5.86643 15.0742 5.74542 14.8C5.63018 14.5311 5.43883 14.3018 5.19493 14.1403C4.95103 13.9788 4.66522 13.8921 4.37269 13.8909H4.21815C3.73593 13.8909 3.27347 13.6994 2.9325 13.3584C2.59152 13.0174 2.39996 12.5549 2.39996 12.0727C2.39996 11.5905 2.59152 11.1281 2.9325 10.7871C3.27347 10.4461 3.73593 10.2545 4.21815 10.2545H4.29996C4.60087 10.2475 4.8927 10.1501 5.13751 9.97501C5.38232 9.79991 5.5688 9.55521 5.67269 9.27273C5.7937 8.99853 5.8298 8.69437 5.77633 8.39947C5.72286 8.10456 5.58227 7.83244 5.37269 7.61818L5.31815 7.56364C5.1491 7.39478 5.01499 7.19425 4.92349 6.97353C4.83199 6.7528 4.7849 6.51621 4.7849 6.27727C4.7849 6.03834 4.83199 5.80174 4.92349 5.58102C5.01499 5.36029 5.1491 5.15977 5.31815 4.99091C5.48701 4.82186 5.68753 4.68775 5.90825 4.59626C6.12898 4.50476 6.36557 4.45766 6.60451 4.45766C6.84345 4.45766 7.08004 4.50476 7.30076 4.59626C7.52149 4.68775 7.72201 4.82186 7.89087 4.99091L7.94542 5.04545C8.15967 5.25503 8.4318 5.39562 8.7267 5.4491C9.02161 5.50257 9.32577 5.46647 9.59996 5.34545H9.67269C9.94157 5.23022 10.1709 5.03887 10.3324 4.79497C10.4939 4.55107 10.5806 4.26526 10.5818 3.97273V3.81818C10.5818 3.33597 10.7733 2.87351 11.1143 2.53253C11.4553 2.19156 11.9178 2 12.4 2C12.8822 2 13.3446 2.19156 13.6856 2.53253C14.0266 2.87351 14.2181 3.33597 14.2181 3.81818V3.9C14.2193 4.19253 14.306 4.47834 14.4675 4.72224C14.629 4.96614 14.8584 5.15749 15.1272 5.27273C15.4014 5.39374 15.7056 5.42984 16.0005 5.37637C16.2954 5.3229 16.5675 5.18231 16.7818 4.97273L16.8363 4.91818C17.0052 4.74913 17.2057 4.61503 17.4264 4.52353C17.6472 4.43203 17.8838 4.38493 18.1227 4.38493C18.3616 4.38493 18.5982 4.43203 18.8189 4.52353C19.0397 4.61503 19.2402 4.74913 19.4091 4.91818C19.5781 5.08704 19.7122 5.28757 19.8037 5.50829C19.8952 5.72901 19.9423 5.96561 19.9423 6.20455C19.9423 6.44348 19.8952 6.68008 19.8037 6.9008C19.7122 7.12152 19.5781 7.32205 19.4091 7.49091L19.3545 7.54545C19.1449 7.75971 19.0043 8.03183 18.9509 8.32674C18.8974 8.62164 18.9335 8.9258 19.0545 9.2V9.27273C19.1697 9.54161 19.3611 9.77093 19.605 9.93245C19.8489 10.094 20.1347 10.1807 20.4272 10.1818H20.5818C21.064 10.1818 21.5265 10.3734 21.8674 10.7144C22.2084 11.0553 22.4 11.5178 22.4 12C22.4 12.4822 22.2084 12.9447 21.8674 13.2856C21.5265 13.6266 21.064 13.8182 20.5818 13.8182H20.5C20.2074 13.8193 19.9216 13.906 19.6777 14.0676C19.4338 14.2291 19.2425 14.4584 19.1272 14.7273Z" stroke="#ABAFB1" stroke-width="1.5" stroke-linecap="round" stroke-linejoin="round"/>
</svg>
